<svg width="100%" height="100%" viewBox="0 0 780 620" fill="none" xmlns="http://www.w3.org/2000/svg">
<path d="M266.198 63.4205C273.47 62.0868 280.481 66.925 281.815 74.1966C283.149 81.4682 278.311 88.48 271.039 89.8138C263.767 91.1475 256.756 86.3092 255.422 79.0376C254.088 71.766 258.926 64.7543 266.198 63.4205ZM270.733 88.144C277.089 86.9782 281.311 80.8588 280.145 74.5029C278.979 68.147 272.86 63.9245 266.504 65.0903C260.148 66.2561 255.926 72.3754 257.092 78.7314C258.257 85.0873 264.377 89.3098 270.733 88.144Z" fill="#BCBCBC"/>
<path d="M561.198 58.4205C568.47 57.0868 575.481 61.925 576.815 69.1966C578.149 76.4682 573.311 83.48 566.039 84.8138C558.767 86.1475 551.756 81.3092 550.422 74.0376C549.088 66.766 553.926 59.7543 561.198 58.4205ZM565.733 83.144C572.089 81.9782 576.311 75.8588 575.145 69.5029C573.979 63.147 567.86 58.9245 561.504 60.0903C555.148 61.2561 550.926 67.3754 552.092 73.7314C553.257 80.0873 559.377 84.3098 565.733 83.144Z" fill="#BCBCBC"/>
<path d="M45.1979 237.421C52.4695 236.087 59.4813 240.925 60.815 248.197C62.1488 255.468 57.3105 262.48 50.0389 263.814C42.7673 265.147 35.7555 260.309 34.4218 253.038C33.088 245.766 37.9263 238.754 45.1979 237.421ZM49.7327 262.144C56.0886 260.978 60.3111 254.859 59.1453 248.503C57.9795 242.147 51.8601 237.924 45.5042 239.09C39.1483 240.256 34.9258 246.375 36.0916 252.731C37.2574 259.087 43.3767 263.31 49.7327 262.144Z" fill="#BCBCBC"/>
<g filter="url(#filter0_f_1072_4809)">
<circle cx="375" cy="524" r="289" fill="#010101" fill-opacity="0.86"/>
</g>
<g filter="url(#filter1_f_1072_4809)">
<circle cx="717" cy="366" r="289" fill="#80D14A" fill-opacity="0.86"/>
</g>
<path d="M158.89 253.264C162.687 252.568 166.349 255.094 167.045 258.891C167.742 262.689 165.215 266.35 161.418 267.047C157.621 267.743 153.959 265.217 153.263 261.419C152.566 257.622 155.093 253.96 158.89 253.264ZM161.258 266.175C164.577 265.566 166.782 262.37 166.173 259.051C165.564 255.732 162.369 253.527 159.05 254.136C155.731 254.745 153.526 257.94 154.135 261.259C154.743 264.579 157.939 266.784 161.258 266.175Z" fill="#1F1F1F"/>
<path d="M161.258 266.175C164.577 265.566 166.782 262.37 166.173 259.051C165.564 255.732 162.369 253.527 159.05 254.136C155.731 254.745 153.526 257.94 154.135 261.259C154.743 264.579 157.939 266.784 161.258 266.175Z" fill="#1F1F1F"/>
<path d="M604.89 8.264C608.687 7.56751 612.349 10.0941 613.045 13.8914C613.742 17.6886 611.215 21.3502 607.418 22.0467C603.621 22.7432 599.959 20.2166 599.263 16.4194C598.566 12.6221 601.093 8.96049 604.89 8.264ZM607.258 21.1748C610.577 20.566 612.782 17.3704 612.173 14.0513C611.564 10.7322 608.369 8.52719 605.05 9.13597C601.731 9.74476 599.526 12.9403 600.135 16.2594C600.743 19.5785 603.939 21.7835 607.258 21.1748Z" fill="#1F1F1F"/>
<path d="M607.258 21.1748C610.577 20.566 612.782 17.3704 612.173 14.0513C611.564 10.7322 608.369 8.52719 605.05 9.13597C601.731 9.74476 599.526 12.9403 600.135 16.2594C600.743 19.5785 603.939 21.7835 607.258 21.1748Z" fill="#1F1F1F"/>
<path d="M386.294 53.8049C394.72 52.2593 402.845 57.8659 404.391 66.2922C405.936 74.7185 400.33 82.8437 391.903 84.3893C383.477 85.9348 375.352 80.3282 373.806 71.9019C372.261 63.4756 377.867 55.3504 386.294 53.8049ZM391.549 82.4543C398.914 81.1034 403.807 74.0123 402.456 66.6471C401.105 59.2819 394.014 54.3889 386.649 55.7398C379.283 57.0907 374.39 64.1818 375.741 71.547C377.092 78.9123 384.183 83.8052 391.549 82.4543Z" fill="#1F1F1F"/>
<path d="M391.549 82.4543C398.914 81.1034 403.807 74.0123 402.456 66.6471C401.105 59.2819 394.014 54.3889 386.649 55.7398C379.283 57.0907 374.39 64.1818 375.741 71.547C377.092 78.9123 384.183 83.8052 391.549 82.4543Z" fill="#1F1F1F"/>
<path d="M16.2937 428.805C24.7201 427.259 32.8453 432.866 34.3908 441.292C35.9364 449.719 30.3298 457.844 21.9035 459.389C13.4772 460.935 5.35197 455.328 3.80642 446.902C2.26088 438.476 7.86743 430.35 16.2937 428.805ZM21.5486 457.454C28.9138 456.103 33.8068 449.012 32.4559 441.647C31.105 434.282 24.0139 429.389 16.6486 430.74C9.28343 432.091 4.39044 439.182 5.74136 446.547C7.09228 453.912 14.1834 458.805 21.5486 457.454Z" fill="#1F1F1F"/>
<path d="M21.5486 457.454C28.9138 456.103 33.8068 449.012 32.4559 441.647C31.105 434.282 24.0139 429.389 16.6486 430.74C9.28343 432.091 4.39044 439.182 5.74136 446.547C7.09228 453.912 14.1834 458.805 21.5486 457.454Z" fill="#1F1F1F"/>
<path d="M422.032 163.898L427.929 148.027L412.058 142.13L418.04 126.033L433.911 131.929L439.808 116.058L455.905 122.04L450.008 137.911L465.88 143.808L459.898 159.905L444.027 154.009L438.13 169.88L422.032 163.898ZM434.771 144.893L428.874 160.764L434.996 163.038L440.892 147.167L456.764 153.064L459.038 146.942L443.167 141.045L449.064 125.174L442.942 122.9L437.045 138.771L421.174 132.874L418.9 138.996L434.771 144.893Z" fill="#575757"/>
<path d="M279 205.923L294.311 195.408" stroke="#3E54C2" stroke-width="3" stroke-miterlimit="10" stroke-linecap="round"/>
<path d="M294.312 203.571L319.401 186" stroke="#3E54C2" stroke-width="3" stroke-miterlimit="10" stroke-linecap="round"/>
<path d="M450.998 14.265L466.372 24.6878" stroke="#3E54C2" stroke-width="3" stroke-miterlimit="10" stroke-linecap="round"/>
<path d="M458.771 27.6642L484.281 44.618" stroke="#3E54C2" stroke-width="3" stroke-miterlimit="10" stroke-linecap="round"/>
<path d="M29.069 525.555L24.6555 543.597" stroke="#3E54C2" stroke-width="3" stroke-miterlimit="10" stroke-linecap="round"/>
<path d="M19.2197 537.509L12.2156 567.328" stroke="#3E54C2" stroke-width="3" stroke-miterlimit="10" stroke-linecap="round"/>
<path d="M47.998 335.265L63.3724 345.688" stroke="#3E54C2" stroke-width="3" stroke-miterlimit="10" stroke-linecap="round"/>
<path d="M55.7714 348.664L81.2814 365.618" stroke="#3E54C2" stroke-width="3" stroke-miterlimit="10" stroke-linecap="round"/>
<path d="M148 148.53L153.816 142.715L148 136.899L153.899 131L159.715 136.816L165.53 131L171.429 136.899L165.613 142.715L171.429 148.53L165.53 154.429L159.715 148.613L153.899 154.429L148 148.53ZM157.471 142.715L151.656 148.53L153.899 150.773L159.715 144.958L165.53 150.773L167.773 148.53L161.958 142.715L167.773 136.899L165.53 134.656L159.715 140.471L153.899 134.656L151.656 136.899L157.471 142.715Z" fill="#1F1F1F"/>
<path d="M157.471 142.715L151.656 148.53L153.899 150.773L159.715 144.958L165.53 150.773L167.773 148.53L161.958 142.715L167.773 136.899L165.53 134.656L159.715 140.471L153.899 134.656L151.656 136.899L157.471 142.715Z" fill="#1F1F1F"/>
<path d="M667.748 36.537L675.935 35.7412L675.139 27.5551L683.442 26.748L684.238 34.934L692.424 34.1383L693.231 42.4413L685.045 43.2371L685.84 51.4232L677.537 52.2303L676.742 44.0442L668.556 44.84L667.748 36.537ZM678.757 38.0639L670.571 38.8596L670.878 42.0171L679.064 41.2213L679.86 49.4074L683.018 49.1005L682.222 40.9144L690.408 40.1186L690.101 36.9611L681.915 37.7569L681.119 29.5708L677.962 29.8778L678.757 38.0639Z" fill="#1F1F1F"/>
<path d="M421.761 475.25H404.364V500H376.207V475.25H316.484V449.962L368.136 373.022H404.185V450.859H421.761V475.25ZM376.386 450.859V403.87H375.848L345.718 450.859H376.386Z" fill="white"/>
<path d="M535.554 436.152C535.554 472.201 521.923 503.408 486.054 503.408C450.005 503.408 436.196 472.201 436.196 436.152C436.196 400.283 450.005 369.615 486.054 369.615C521.923 369.615 535.554 400.283 535.554 436.152Z" fill="white"/>
<path d="M653.651 475.25H636.254V500H608.097V475.25H548.374V449.962L600.026 373.022H636.075V450.859H653.651V475.25ZM608.276 450.859V403.87H607.738L577.608 450.859H608.276Z" fill="white"/>
<path d="M470.45 421.707C483.263 419.357 495.618 427.882 497.968 440.695C500.318 453.508 491.793 465.863 478.98 468.213C466.168 470.563 453.813 462.038 451.463 449.225C449.112 436.412 457.638 424.057 470.45 421.707ZM478.441 465.271C489.64 463.217 497.08 452.434 495.026 441.235C492.972 430.036 482.189 422.595 470.99 424.65C459.791 426.704 452.351 437.486 454.405 448.685C456.459 459.885 467.241 467.325 478.441 465.271Z" fill="#1F1F1F"/>
<path d="M478.441 465.271C489.64 463.217 497.08 452.434 495.026 441.235C492.972 430.036 482.189 422.595 470.99 424.65C459.791 426.704 452.351 437.486 454.405 448.685C456.459 459.885 467.241 467.325 478.441 465.271Z" fill="#1F1F1F"/>
<path d="M490.22 404.981C503.033 402.631 515.388 411.156 517.738 423.969C520.088 436.782 511.563 449.137 498.75 451.487C485.937 453.837 473.582 445.312 471.232 432.499C468.882 419.686 477.407 407.331 490.22 404.981ZM498.21 448.544C509.41 446.49 516.85 435.708 514.795 424.508C512.741 413.309 501.959 405.869 490.76 407.923C479.56 409.977 472.12 420.76 474.174 431.959C476.228 443.158 487.011 450.599 498.21 448.544Z" fill="#85D94C"/>
<path d="M498.21 448.544C509.41 446.49 516.85 435.708 514.795 424.508C512.741 413.309 501.959 405.869 490.76 407.923C479.56 409.977 472.12 420.76 474.174 431.959C476.228 443.158 487.011 450.599 498.21 448.544Z" fill="#85D94C"/>
<defs>
<filter id="filter0_f_1072_4809" x="85" y="234" width="580" height="580" filterUnits="userSpaceOnUse" color-interpolation-filters="sRGB">
<feFlood flood-opacity="0" result="BackgroundImageFix"/>
<feBlend mode="normal" in="SourceGraphic" in2="BackgroundImageFix" result="shape"/>
<feGaussianBlur stdDeviation="0.5" result="effect1_foregroundBlur_1072_4809"/>
</filter>
<filter id="filter1_f_1072_4809" x="427" y="76" width="580" height="580" filterUnits="userSpaceOnUse" color-interpolation-filters="sRGB">
<feFlood flood-opacity="0" result="BackgroundImageFix"/>
<feBlend mode="normal" in="SourceGraphic" in2="BackgroundImageFix" result="shape"/>
<feGaussianBlur stdDeviation="0.5" result="effect1_foregroundBlur_1072_4809"/>
</filter>
</defs>
</svg>
