<svg width="168" height="168" viewBox="0 0 168 168" fill="none" xmlns="http://www.w3.org/2000/svg">
<path d="M135.617 71.6002L140.364 58.2945C140.597 57.6461 140.545 56.9199 140.26 56.2974C139.949 55.6749 139.43 55.1821 138.756 54.9746L125.398 50.3838L123.894 36.326C123.816 35.6257 123.479 35.0032 122.934 34.5623C122.389 34.1214 121.689 33.9398 121.015 34.0176L106.983 35.6776L99.5391 23.6688C99.176 23.0723 98.5794 22.6573 97.9051 22.5016C97.2307 22.346 96.5304 22.4757 95.9339 22.8388L84.0029 30.4383L72.0719 22.8388C71.5013 22.4757 70.7751 22.346 70.1007 22.5016C69.4264 22.6573 68.8298 23.0723 68.4667 23.6688L61.0228 35.6776L46.991 34.0176C46.3166 33.9398 45.6163 34.1214 45.0716 34.5623C44.527 35.0032 44.1898 35.6257 44.112 36.326L42.6076 50.3838L29.2242 54.9746C28.5758 55.2081 28.0311 55.6749 27.7199 56.2974C27.4086 56.9199 27.3827 57.6461 27.6161 58.2945L32.3626 71.6002L22.325 81.534C21.8322 82.0268 21.5469 82.6752 21.5469 83.3755C21.5469 84.0758 21.8322 84.7242 22.325 85.217L32.3626 95.1508L27.6161 108.456C27.3827 109.105 27.4345 109.831 27.7199 110.454C28.0311 111.076 28.5498 111.569 29.2242 111.776L42.5817 116.367L44.086 130.425C44.1638 131.125 44.501 131.748 45.0457 132.189C45.5904 132.63 46.2907 132.811 46.965 132.733L60.9969 131.073L68.4408 143.082C68.8039 143.679 69.4004 144.094 70.0748 144.249C70.7491 144.405 71.4494 144.275 72.046 143.912L83.977 136.313L95.9079 143.912C96.3229 144.172 96.8157 144.327 97.3085 144.327C97.4901 144.327 97.6976 144.301 97.8791 144.275C98.5535 144.12 99.15 143.705 99.5131 143.108L106.957 131.099L120.989 132.759C121.689 132.837 122.364 132.656 122.908 132.215C123.453 131.774 123.79 131.151 123.868 130.451L125.372 116.393L138.73 111.802C139.378 111.569 139.923 111.102 140.234 110.48C140.545 109.857 140.571 109.131 140.338 108.482L135.617 95.1508L145.655 85.217C146.148 84.7242 146.433 84.0758 146.433 83.3755C146.433 82.6752 146.148 82.0268 145.655 81.534L135.617 71.6002ZM130.793 92.635C130.067 93.3353 129.833 94.3987 130.171 95.3584L134.58 107.756L122.13 112.036C121.17 112.373 120.496 113.203 120.392 114.214L118.992 127.313L105.92 125.782C104.934 125.653 103.948 126.145 103.404 127.001L96.4526 138.18L85.3516 131.099C84.9366 130.84 84.4438 130.684 83.951 130.684C83.4582 130.684 82.9913 130.814 82.5504 131.099L71.4494 138.18L64.4984 127.001C63.9796 126.145 62.994 125.679 61.9825 125.782L48.9103 127.313L47.5097 114.214C47.4059 113.203 46.7316 112.373 45.7719 112.036L33.3222 107.756L37.7315 95.3584C38.0687 94.3987 37.8352 93.3612 37.109 92.635L27.7458 83.3755L37.109 74.116C37.8352 73.4157 38.0687 72.3523 37.7315 71.3927L33.3222 58.9948L45.7719 54.7153C46.7316 54.3781 47.4059 53.5481 47.5097 52.5366L48.9103 39.4384L61.9825 40.9687C62.9681 41.0725 63.9537 40.6056 64.4984 39.7497L71.4494 28.5709L82.5504 35.6516C83.4063 36.1963 84.4957 36.1963 85.3257 35.6516L96.4267 28.5709L103.378 39.7497C103.896 40.6056 104.856 41.0725 105.894 40.9687L118.966 39.4384L120.366 52.5366C120.47 53.5481 121.144 54.3781 122.104 54.7153L134.554 58.9689L130.145 71.3667C129.807 72.3264 130.041 73.3639 130.767 74.0901L140.13 83.3496L130.793 92.635Z" fill="#85D94C"/>
<path d="M130.793 92.635C130.067 93.3353 129.833 94.3987 130.171 95.3584L134.58 107.756L122.13 112.036C121.17 112.373 120.496 113.203 120.392 114.214L118.992 127.313L105.92 125.782C104.934 125.653 103.948 126.145 103.404 127.001L96.4526 138.18L85.3516 131.099C84.9366 130.84 84.4438 130.684 83.951 130.684C83.4582 130.684 82.9913 130.814 82.5504 131.099L71.4494 138.18L64.4984 127.001C63.9796 126.145 62.994 125.679 61.9825 125.782L48.9103 127.313L47.5097 114.214C47.4059 113.203 46.7316 112.373 45.7719 112.036L33.3222 107.756L37.7315 95.3584C38.0687 94.3987 37.8352 93.3612 37.109 92.635L27.7458 83.3755L37.109 74.116C37.8352 73.4157 38.0687 72.3523 37.7315 71.3927L33.3222 58.9948L45.7719 54.7153C46.7316 54.3781 47.4059 53.5481 47.5097 52.5366L48.9103 39.4384L61.9825 40.9687C62.9681 41.0725 63.9537 40.6056 64.4984 39.7497L71.4494 28.5709L82.5504 35.6516C83.4063 36.1963 84.4957 36.1963 85.3257 35.6516L96.4267 28.5709L103.378 39.7497C103.896 40.6056 104.856 41.0725 105.894 40.9687L118.966 39.4384L120.366 52.5366C120.47 53.5481 121.144 54.3781 122.104 54.7153L134.554 58.9689L130.145 71.3667C129.807 72.3264 130.041 73.3639 130.767 74.0901L140.13 83.3496L130.793 92.635Z" fill="#85D94C"/>
<path d="M83.9999 14.1572C85.7026 14.1572 87.0936 12.7662 87.0936 11.0635V3.59369C87.0936 1.89102 85.7026 0.5 83.9999 0.5C82.2973 0.5 80.9062 1.89102 80.9062 3.59369V11.0635C80.9062 12.7954 82.3005 14.1572 83.9999 14.1572Z" fill="#85D94C" stroke="#85D94C"/>
<path d="M83.9999 153.839C82.2973 153.839 80.9062 155.23 80.9062 156.933V164.402C80.9062 166.105 82.2973 167.496 83.9999 167.496C85.7026 167.496 87.0936 166.105 87.0936 164.402V156.933C87.0936 155.201 85.6993 153.839 83.9999 153.839Z" fill="#85D94C" stroke="#85D94C"/>
<path d="M30.2358 34.6298L30.2367 34.6306C30.8571 35.251 31.6364 35.5292 32.4318 35.5292C33.2386 35.5292 34.0091 35.2177 34.6177 34.6396L34.6178 34.6397L34.6268 34.6306C35.8336 33.4238 35.8336 31.4732 34.6268 30.2664L29.3357 24.9753C28.1289 23.7685 26.1783 23.7685 24.9715 24.9753C23.7649 26.1819 23.7647 28.1322 24.971 29.339C24.9712 29.3392 24.9714 29.3393 24.9715 29.3395L30.2358 34.6298Z" fill="#85D94C" stroke="#85D94C"/>
<path d="M133.389 137.73L133.743 137.376L133.389 137.73L138.681 143.021C139.301 143.641 140.08 143.919 140.876 143.919C141.682 143.919 142.453 143.608 143.062 143.03L143.062 143.03L143.071 143.021C144.278 141.814 144.278 139.863 143.071 138.657L143.07 138.656L137.754 133.365C137.754 133.365 137.753 133.365 137.753 133.365C136.546 132.159 134.596 132.159 133.389 133.365C132.183 134.572 132.183 136.523 133.389 137.73Z" fill="#85D94C" stroke="#85D94C"/>
<path d="M11.0635 80.9043H3.59369C1.89102 80.9043 0.5 82.2953 0.5 83.998C0.5 85.7007 1.89102 87.0917 3.59369 87.0917H11.0635C12.7662 87.0917 14.1572 85.7007 14.1572 83.998C14.1572 82.2986 12.7954 80.9043 11.0635 80.9043Z" fill="#85D94C" stroke="#85D94C"/>
<path d="M164.403 80.9043H156.934C155.231 80.9043 153.84 82.2953 153.84 83.998C153.84 85.7007 155.231 87.0917 156.934 87.0917H164.403C166.106 87.0917 167.497 85.7007 167.497 83.998C167.497 82.2953 166.106 80.9043 164.403 80.9043Z" fill="#85D94C" stroke="#85D94C"/>
<path d="M29.3329 143.03L29.3331 143.03L29.3421 143.021L34.6332 137.73C35.84 136.523 35.84 134.572 34.6332 133.365C33.4264 132.159 31.4499 132.159 30.2431 133.365L24.952 138.657C23.7452 139.863 23.7452 141.814 24.952 143.021C25.5724 143.641 26.3517 143.919 27.147 143.919C27.9539 143.919 28.7244 143.608 29.3329 143.03Z" fill="#85D94C" stroke="#85D94C"/>
<path d="M137.745 34.6396L137.745 34.6397L137.754 34.6306L143.045 29.3395C144.252 28.1327 144.252 26.1821 143.045 24.9753C141.838 23.7685 139.887 23.7685 138.681 24.9753L133.389 30.2664C132.183 31.4732 132.183 33.4238 133.389 34.6306C133.979 35.2206 134.783 35.5292 135.559 35.5292C136.365 35.5292 137.136 35.2177 137.745 34.6396Z" fill="#85D94C" stroke="#85D94C"/>
<path d="M83.9969 115.693C66.1783 115.693 51.6796 101.194 51.6796 83.3757C51.6796 65.5571 66.1783 51.0583 83.9969 51.0583C101.816 51.0583 116.314 65.5571 116.314 83.3757C116.314 101.194 101.816 115.693 83.9969 115.693Z" fill="#FAFAFA"/>
<path d="M79.0231 89.5936L73.7224 84.2929C72.5156 83.0861 70.565 83.0861 69.3582 84.2929C68.1514 85.4997 68.1514 87.4504 69.3582 88.6572L76.8281 96.127C77.4181 96.717 78.1952 97.0256 79.0231 97.0256C79.8623 97.0256 80.6311 96.6834 81.2085 96.1364L81.2086 96.1365L81.2182 96.127L101.164 76.1815C102.37 74.9747 102.37 73.0241 101.164 71.8173C99.9504 70.6041 97.9738 70.6429 96.7735 71.8432L79.0231 89.5936Z" fill="#85D94C" stroke="#85D94C"/>
</svg>
