<svg width="40" height="40" viewBox="0 0 40 40" fill="none" xmlns="http://www.w3.org/2000/svg">
<rect width="40" height="40" rx="8" fill="#4F6AF4"/>
<path d="M8.7 25.7667C8.7 26.4846 9.28203 27.0667 10 27.0667H13.1693C14.8301 27.0667 16.2091 26.6779 17.1812 25.9632C18.1618 25.2423 18.7106 24.2008 18.7106 22.9556C18.7106 21.8831 18.3474 20.9945 17.723 20.3482C17.3182 19.9291 16.8112 19.6196 16.2385 19.426C17.3263 18.8539 18.0157 17.7778 18.0157 16.5194C18.0157 15.0343 17.3657 14.0583 16.4144 13.4692C15.4836 12.8929 14.288 12.7 13.1891 12.7H10C9.28203 12.7 8.7 13.282 8.7 14V25.7667ZM13.3082 18.7278H10.7295V14.5056H12.9112C13.8064 14.5056 14.586 14.6671 15.1318 15.0091C15.6588 15.3392 15.9863 15.8468 15.9863 16.6167C15.9863 17.4254 15.6386 17.9354 15.147 18.2564C14.6389 18.5882 13.9582 18.7278 13.3082 18.7278ZM10.7295 25.2611V20.475H13.3479C14.4577 20.475 15.2884 20.6936 15.8343 21.0908C16.3648 21.4768 16.6613 22.0567 16.6613 22.8778C16.6613 23.7263 16.2724 24.3041 15.6444 24.6848C14.9993 25.0757 14.0929 25.2611 13.0898 25.2611H10.7295ZM28.3032 21.2167H22.6401C22.8925 19.9401 24.0384 18.8417 25.5528 18.8417C26.4468 18.8417 27.115 19.1331 27.5695 19.5974C27.9654 20.0018 28.2184 20.5573 28.3032 21.2167ZM29.3574 22.8667C29.8625 22.8667 30.3 22.4748 30.3 21.9444C30.3 20.6401 29.8991 19.4352 29.0922 18.5531C28.2816 17.6669 27.0856 17.1333 25.5528 17.1333C22.7426 17.1333 20.5673 19.3133 20.5673 22.2167C20.5673 25.125 22.7476 27.3 25.6719 27.3C27.0872 27.3 28.3875 26.8381 29.4667 25.7461C29.8464 25.362 29.7504 24.7642 29.3568 24.4619C28.9265 24.1313 28.3521 24.2694 28.0246 24.6024C27.4911 25.145 26.6724 25.5722 25.6719 25.5722C24.0397 25.5722 22.7784 24.3891 22.5982 22.8667H29.3574Z" fill="#FAFAFA" stroke="#FAFAFA" stroke-width="0.6"/>
</svg>
