<svg width="220" height="166" viewBox="0 0 220 166" fill="none" xmlns="http://www.w3.org/2000/svg">
<path d="M92.635 7.05456C94.3902 6.72921 96.0811 7.90078 96.401 9.66396C96.721 11.4271 95.5517 13.1289 93.7965 13.4543C92.0414 13.7796 90.3505 12.608 90.0305 10.8449C89.7105 9.08168 90.8799 7.37991 92.635 7.05456ZM93.723 13.0494C95.2572 12.765 96.2777 11.2798 95.998 9.73867C95.7183 8.19752 94.2427 7.17506 92.7085 7.45944C91.1744 7.74382 90.1538 9.229 90.4335 10.7702C90.7132 12.3113 92.1889 13.3338 93.723 13.0494Z" fill="#6AAE3D"/>
<path d="M184.909 7.83365C190.36 6.82327 195.611 10.4616 196.604 15.9372C197.598 21.4128 193.966 26.6976 188.516 27.708C183.065 28.7184 177.814 25.0801 176.82 19.6045C175.827 14.1289 179.458 8.84403 184.909 7.83365ZM188.288 26.4506C193.052 25.5675 196.221 20.9553 195.353 16.1692C194.484 11.3831 189.901 8.20786 185.137 9.09101C180.373 9.97415 177.203 14.5864 178.072 19.3725C178.941 24.1585 183.523 27.3338 188.288 26.4506Z" fill="#6AAE3D"/>
<path d="M188.288 26.4506C193.052 25.5675 196.221 20.9553 195.353 16.1692C194.484 11.3831 189.901 8.20786 185.137 9.09101C180.373 9.97415 177.203 14.5864 178.072 19.3725C178.941 24.1585 183.523 27.3338 188.288 26.4506Z" fill="#6AAE3D"/>
<path d="M44.0361 159.563C45.7102 159.253 47.3229 160.37 47.6281 162.052C47.9333 163.734 46.818 165.357 45.1439 165.667C43.4699 165.977 41.8572 164.86 41.552 163.178C41.2467 161.497 42.3621 159.873 44.0361 159.563ZM45.0738 165.281C46.5371 165.01 47.5105 163.593 47.2437 162.123C46.9769 160.653 45.5695 159.678 44.1062 159.949C42.643 160.221 41.6696 161.637 41.9364 163.107C42.2031 164.577 43.6106 165.552 45.0738 165.281Z" fill="#85D94C"/>
<path d="M45.0738 165.281C46.5371 165.01 47.5105 163.593 47.2437 162.123C46.9769 160.653 45.5695 159.678 44.1062 159.949C42.643 160.221 41.6696 161.637 41.9364 163.107C42.2031 164.577 43.6106 165.552 45.0738 165.281Z" fill="#85D94C"/>
<path d="M3.91653 118.883L8.08613 107.068" stroke="#6AAE3D" stroke-width="3" stroke-miterlimit="10" stroke-linecap="round"/>
<path d="M11.3297 111.547L18.0261 92.0003" stroke="#6AAE3D" stroke-width="3" stroke-miterlimit="10" stroke-linecap="round"/>
<path d="M15.7949 38.9812L17.1538 35.0955L13.277 33.7117L14.6552 29.7706L18.532 31.1544L19.8909 27.2688L23.8231 28.6723L22.4642 32.558L26.341 33.9418L24.9628 37.8829L21.086 36.4991L19.7271 40.3847L15.7949 38.9812ZM18.7993 34.3092L17.4404 38.1949L18.9358 38.7286L20.2946 34.843L24.1714 36.2268L24.6955 34.7281L20.8187 33.3443L22.1776 29.4586L20.6822 28.9249L19.3234 32.8105L15.4466 31.4267L14.9225 32.9254L18.7993 34.3092Z" fill="#85D94C"/>
<path d="M18.7993 34.3092L17.4404 38.1949L18.9358 38.7286L20.2946 34.843L24.1714 36.2268L24.6955 34.7281L20.8187 33.3443L22.1776 29.4586L20.6822 28.9249L19.3234 32.8105L15.4466 31.4267L14.9225 32.9254L18.7993 34.3092Z" fill="#85D94C"/>
<path d="M187 82.037L193.901 77.2675" stroke="#85D94C" stroke-width="3" stroke-miterlimit="10" stroke-linecap="round"/>
<path d="M193.898 80.9701L205.205 73" stroke="#85D94C" stroke-width="3" stroke-miterlimit="10" stroke-linecap="round"/>
<path d="M210.904 150.287C211.128 151.521 210.31 152.708 209.087 152.935C207.863 153.162 206.681 152.346 206.457 151.111C206.233 149.877 207.051 148.69 208.275 148.463C209.499 148.236 210.68 149.053 210.904 150.287Z" stroke="#85D94C"/>
<path fill-rule="evenodd" clip-rule="evenodd" d="M155.709 77.201V59.5974H43V128.044C43 129.241 43.4757 130.39 44.3232 131.237C45.1692 132.083 46.3178 132.561 47.5161 132.561H131.64C137.178 125.326 145.903 120.658 155.709 120.658V120.174C143.851 120.174 134.223 110.546 134.223 98.687C134.223 86.8293 143.851 77.201 155.709 77.201ZM95.2781 110.077L106.955 76.3881C107.363 75.2094 106.74 73.9223 105.561 73.5144C104.384 73.1064 103.097 73.7312 102.689 74.9083L91.0119 108.597C90.6039 109.774 91.2287 111.063 92.4058 111.47C93.583 111.878 94.8701 111.254 95.2781 110.077ZM109.573 85.7093C109.573 85.7093 112.894 89.0301 115.185 91.3213C115.326 91.4628 115.405 91.6539 115.405 91.8527C115.405 92.0529 115.326 92.244 115.185 92.3856C113.026 94.5442 110 97.57 110 97.57C109.12 98.4506 109.12 99.8822 110 100.763C110.881 101.645 112.313 101.645 113.193 100.763C113.193 100.763 116.219 97.7371 118.378 95.5784C119.367 94.5909 119.921 93.2511 119.921 91.8527C119.921 90.4557 119.367 89.1159 118.378 88.1269C116.087 85.8357 112.766 82.5149 112.766 82.5149C111.885 81.6343 110.454 81.6343 109.573 82.5149C108.692 83.3971 108.692 84.8271 109.573 85.7093ZM85.9433 82.5149C85.9433 82.5149 82.6225 85.8357 80.3314 88.1269C79.3439 89.1159 78.7884 90.4557 78.7884 91.8527C78.7884 93.2511 79.3439 94.5909 80.3314 95.5784C82.4901 97.7371 85.5158 100.763 85.5158 100.763C86.3965 101.645 87.828 101.645 88.7087 100.763C89.5908 99.8822 89.5908 98.4506 88.7087 97.57C88.7087 97.57 85.6844 94.5442 83.5242 92.3856C83.3827 92.244 83.3045 92.0529 83.3045 91.8527C83.3045 91.6539 83.3827 91.4628 83.5242 91.3213C85.8154 89.0301 89.1362 85.7093 89.1362 85.7093C90.0183 84.8271 90.0183 83.3971 89.1362 82.5149C88.2556 81.6343 86.824 81.6343 85.9433 82.5149Z" fill="#85D94C"/>
<path fill-rule="evenodd" clip-rule="evenodd" d="M43 55.0813H155.709V42.5161C155.709 41.3178 155.233 40.1692 154.387 39.3217C153.54 38.4757 152.391 38 151.193 38C133.06 38 65.6496 38 47.5161 38C46.3178 38 45.1692 38.4757 44.3232 39.3217C43.4757 40.1692 43 41.3178 43 42.5161V55.0813ZM145.423 45.4109H140.513C139.266 45.4109 138.255 46.4225 138.255 47.6689C138.255 48.9153 139.266 49.9269 140.513 49.9269H145.423C146.668 49.9269 147.681 48.9153 147.681 47.6689C147.681 46.4225 146.668 45.4109 145.423 45.4109ZM113.562 45.4109H108.653C107.407 45.4109 106.395 46.4225 106.395 47.6689C106.395 48.9153 107.407 49.9269 108.653 49.9269H113.562C114.809 49.9269 115.82 48.9153 115.82 47.6689C115.82 46.4225 114.809 45.4109 113.562 45.4109ZM129.492 45.4109H124.583C123.336 45.4109 122.325 46.4225 122.325 47.6689C122.325 48.9153 123.336 49.9269 124.583 49.9269H129.492C130.738 49.9269 131.75 48.9153 131.75 47.6689C131.75 46.4225 130.738 45.4109 129.492 45.4109Z" fill="#85D94C"/>
<path fill-rule="evenodd" clip-rule="evenodd" d="M155.708 81.7171C165.075 81.7171 172.68 89.3207 172.68 98.687C172.68 108.053 165.075 115.658 155.708 115.658C146.342 115.658 138.738 108.053 138.738 98.687C138.738 89.3207 146.342 81.7171 155.708 81.7171ZM160.411 102.833C159.006 103.575 157.406 103.993 155.708 103.993C154.012 103.993 152.411 103.575 151.007 102.833C149.905 102.25 148.537 102.673 147.956 103.775C147.373 104.877 147.796 106.244 148.898 106.826C150.932 107.901 153.25 108.509 155.708 108.509C158.168 108.509 160.485 107.901 162.52 106.826C163.622 106.244 164.043 104.877 163.462 103.775C162.88 102.673 161.513 102.25 160.411 102.833Z" fill="#85D94C"/>
<path fill-rule="evenodd" clip-rule="evenodd" d="M150.271 125.747L147.732 139.079C147.538 140.099 148.064 141.122 149.008 141.554L154.765 144.194C155.362 144.468 156.049 144.468 156.646 144.194L162.403 141.554C163.348 141.122 163.875 140.099 163.681 139.079L161.141 125.747C172.764 128.246 181.489 138.591 181.489 150.956H129.922C129.922 138.591 138.647 128.246 150.271 125.747ZM154.976 125.183C155.218 125.177 155.462 125.174 155.706 125.174C155.951 125.174 156.195 125.177 156.436 125.183L158.914 138.186L155.706 139.657L152.499 138.186L154.976 125.183Z" fill="#85D94C"/>
</svg>
