<svg width="168" height="168" viewBox="0 0 168 168" fill="none" xmlns="http://www.w3.org/2000/svg">
<path d="M83.9999 14.1572C85.7026 14.1572 87.0936 12.7662 87.0936 11.0635V3.59369C87.0936 1.89102 85.7026 0.5 83.9999 0.5C82.2973 0.5 80.9062 1.89102 80.9062 3.59369V11.0635C80.9062 12.7954 82.3005 14.1572 83.9999 14.1572Z" fill="#85D94C" stroke="#85D94C"/>
<path d="M83.9999 153.839C82.2973 153.839 80.9062 155.23 80.9062 156.933V164.402C80.9062 166.105 82.2973 167.496 83.9999 167.496C85.7026 167.496 87.0936 166.105 87.0936 164.402V156.933C87.0936 155.201 85.6993 153.839 83.9999 153.839Z" fill="#85D94C" stroke="#85D94C"/>
<path d="M30.2358 34.6298L30.2367 34.6306C30.8571 35.251 31.6364 35.5292 32.4318 35.5292C33.2386 35.5292 34.0091 35.2177 34.6177 34.6396L34.6178 34.6397L34.6268 34.6306C35.8336 33.4238 35.8336 31.4732 34.6268 30.2664L29.3357 24.9753C28.1289 23.7685 26.1783 23.7685 24.9715 24.9753C23.7649 26.1819 23.7647 28.1322 24.971 29.339C24.9712 29.3392 24.9714 29.3393 24.9715 29.3395L30.2358 34.6298Z" fill="#85D94C" stroke="#85D94C"/>
<path d="M133.389 137.73L133.743 137.376L133.389 137.73L138.681 143.021C139.301 143.641 140.08 143.919 140.876 143.919C141.682 143.919 142.453 143.608 143.062 143.03L143.062 143.03L143.071 143.021C144.278 141.814 144.278 139.863 143.071 138.657L143.07 138.656L137.754 133.365C137.754 133.365 137.753 133.365 137.753 133.365C136.546 132.159 134.596 132.159 133.389 133.365C132.183 134.572 132.183 136.523 133.389 137.73Z" fill="#85D94C" stroke="#85D94C"/>
<path d="M11.0635 80.9043H3.59369C1.89102 80.9043 0.5 82.2953 0.5 83.998C0.5 85.7007 1.89102 87.0917 3.59369 87.0917H11.0635C12.7662 87.0917 14.1572 85.7007 14.1572 83.998C14.1572 82.2986 12.7954 80.9043 11.0635 80.9043Z" fill="#85D94C" stroke="#85D94C"/>
<path d="M164.403 80.9043H156.934C155.231 80.9043 153.84 82.2953 153.84 83.998C153.84 85.7007 155.231 87.0917 156.934 87.0917H164.403C166.106 87.0917 167.497 85.7007 167.497 83.998C167.497 82.2953 166.106 80.9043 164.403 80.9043Z" fill="#85D94C" stroke="#85D94C"/>
<path d="M29.3329 143.03L29.3331 143.03L29.3421 143.021L34.6332 137.73C35.84 136.523 35.84 134.572 34.6332 133.366C33.4264 132.159 31.4499 132.159 30.2431 133.366L24.952 138.657C23.7452 139.863 23.7452 141.814 24.952 143.021C25.5724 143.641 26.3517 143.92 27.147 143.92C27.9539 143.92 28.7244 143.608 29.3329 143.03Z" fill="#85D94C" stroke="#85D94C"/>
<path d="M137.745 34.6396L137.745 34.6397L137.754 34.6306L143.045 29.3395C144.252 28.1327 144.252 26.1821 143.045 24.9753C141.838 23.7685 139.887 23.7685 138.681 24.9753L133.389 30.2664C132.183 31.4732 132.183 33.4238 133.389 34.6306C133.979 35.2206 134.783 35.5292 135.559 35.5292C136.365 35.5292 137.136 35.2177 137.745 34.6396Z" fill="#85D94C" stroke="#85D94C"/>
<path fill-rule="evenodd" clip-rule="evenodd" d="M114 87.8909V53.4286C114 50.4302 111.551 48 108.529 48C95.8996 48 70.1004 48 57.4706 48C54.449 48 52 50.4302 52 53.4286V118.571C52 121.57 54.449 124 57.4706 124H100.65C95.4912 120.397 92.1195 114.444 92.1195 107.714C92.1195 96.7287 101.108 87.8095 112.178 87.8095C112.793 87.8095 113.4 87.8367 114 87.8909ZM59.8284 101.756L63.4755 105.375C64.1885 106.082 65.3428 106.082 66.0539 105.375L73.3499 98.1365C74.0611 97.4308 74.0611 96.2835 73.3499 95.5778C72.6387 94.8721 71.4826 94.8721 70.7714 95.5778L64.7647 101.537L62.4069 99.1969C61.6957 98.4911 60.5396 98.4911 59.8284 99.1969C59.1172 99.9026 59.1172 101.05 59.8284 101.756ZM79.3529 102.667H87.296C88.3025 102.667 89.1195 101.856 89.1195 100.857C89.1195 99.8583 88.3025 99.0476 87.296 99.0476H79.3529C78.3464 99.0476 77.5294 99.8583 77.5294 100.857C77.5294 101.856 78.3464 102.667 79.3529 102.667ZM59.8284 83.6603L63.4755 87.2793C64.1885 87.9869 65.3428 87.9869 66.0539 87.2793L73.3499 80.0412C74.0611 79.3355 74.0611 78.1883 73.3499 77.4826C72.6387 76.7769 71.4826 76.7769 70.7714 77.4826L64.7647 83.4413L62.4069 81.1016C61.6957 80.3959 60.5396 80.3959 59.8284 81.1016C59.1172 81.8073 59.1172 82.9546 59.8284 83.6603ZM79.3529 84.5714H104.882C105.889 84.5714 106.706 83.7608 106.706 82.7619C106.706 81.7631 105.889 80.9524 104.882 80.9524H79.3529C78.3464 80.9524 77.5294 81.7631 77.5294 82.7619C77.5294 83.7608 78.3464 84.5714 79.3529 84.5714ZM59.8284 65.565L63.4755 69.1841C64.1885 69.8916 65.3428 69.8916 66.0539 69.1841L73.3499 61.946C74.0611 61.2403 74.0611 60.093 73.3499 59.3873C72.6387 58.6816 71.4826 58.6816 70.7714 59.3873L64.7647 65.3461L62.4069 63.0064C61.6957 62.3007 60.5396 62.3007 59.8284 63.0064C59.1172 63.7121 59.1172 64.8593 59.8284 65.565ZM79.3529 66.4762H104.882C105.889 66.4762 106.706 65.6655 106.706 64.6667C106.706 63.6678 105.889 62.8571 104.882 62.8571H79.3529C78.3464 62.8571 77.5294 63.6678 77.5294 64.6667C77.5294 65.6655 78.3464 66.4762 79.3529 66.4762Z" fill="#85D94C"/>
<path fill-rule="evenodd" clip-rule="evenodd" d="M112.5 91C121.606 91 129 98.3938 129 107.5C129 116.606 121.606 124 112.5 124C103.394 124 96 116.606 96 107.5C96 98.3938 103.394 91 112.5 91ZM103.425 108.796L108.611 113.983C109.326 114.698 110.487 114.698 111.204 113.983L121.575 103.611C122.29 102.895 122.29 101.734 121.575 101.017C120.858 100.302 119.698 100.302 118.981 101.017L109.908 110.092L106.019 106.204C105.302 105.489 104.142 105.489 103.425 106.204C102.71 106.919 102.71 108.081 103.425 108.796Z" fill="#85D94C"/>
</svg>
