<svg width="220" height="166" viewBox="0 0 220 166" fill="none" xmlns="http://www.w3.org/2000/svg">
<rect x="56" y="122" width="31" height="41" rx="3.675" fill="#85D94C"/>
<rect x="95" y="92" width="31" height="71" rx="3.675" fill="#85D94C"/>
<rect x="133" y="67" width="31" height="96" rx="3.675" fill="#85D94C"/>
<path d="M148.619 20L153.445 29.374L164.237 30.8864L156.428 38.1789L158.271 48.4813L148.619 43.6146L138.966 48.4813L140.809 38.1789L133 30.8864L143.793 29.374L148.619 20Z" fill="#85D94C" stroke="#85D94C" stroke-width="2.75625" stroke-linecap="round" stroke-linejoin="round"/>
<path d="M149 9.5C149.838 9.5 150.5 8.80356 150.5 7.97541V5.02459C150.5 4.19644 149.838 3.5 149 3.5C148.162 3.5 147.5 4.19644 147.5 5.02459V7.97541C147.5 8.8171 148.166 9.5 149 9.5Z" fill="#85D94C" stroke="#85D94C"/>
<path d="M126.948 18.0649L126.949 18.0658C127.249 18.3659 127.627 18.5 128.006 18.5C128.396 18.5 128.767 18.3485 129.055 18.0747L129.055 18.0748L129.064 18.0658C129.645 17.4837 129.645 16.5424 129.064 15.9603L127.041 13.9367C126.459 13.3544 125.518 13.3544 124.936 13.9367C124.355 14.5186 124.355 15.4596 124.936 16.0417C124.936 16.0419 124.936 16.0421 124.936 16.0422L126.948 18.0649Z" fill="#85D94C" stroke="#85D94C"/>
<path d="M118.975 36.5H116.025C115.196 36.5 114.5 37.1625 114.5 38C114.5 38.8375 115.196 39.5 116.025 39.5H118.975C119.804 39.5 120.5 38.8375 120.5 38C120.5 37.1657 119.817 36.5 118.975 36.5Z" fill="#85D94C" stroke="#85D94C"/>
<path d="M181.975 36.5H179.025C178.196 36.5 177.5 37.1625 177.5 38C177.5 38.8375 178.196 39.5 179.025 39.5H181.975C182.804 39.5 183.5 38.8375 183.5 38C183.5 37.1625 182.804 36.5 181.975 36.5Z" fill="#85D94C" stroke="#85D94C"/>
<path d="M171.032 18.0747L171.032 18.0748L171.041 18.0658L173.064 16.0422C173.645 15.4601 173.645 14.5188 173.064 13.9367C172.482 13.3544 171.541 13.3544 170.959 13.9367L168.936 15.9603C168.355 16.5424 168.355 17.4837 168.936 18.0658C169.222 18.3515 169.608 18.5 169.984 18.5C170.374 18.5 170.744 18.3485 171.032 18.0747Z" fill="#85D94C" stroke="#85D94C"/>
</svg>
