<svg width="21" height="20" viewBox="0 0 21 20" fill="none" xmlns="http://www.w3.org/2000/svg">
<g id="Group 28">
<path id="Vector" d="M10.7052 8.18188V12.0546H16.1968C15.9557 13.3001 15.232 14.3546 14.1467 15.0637L17.4584 17.5819C19.3879 15.8365 20.501 13.2729 20.501 10.2274C20.501 9.51836 20.4361 8.83648 20.3155 8.18199L10.7052 8.18188Z" fill="#4285F4"/>
<path id="Vector_2" d="M4.9846 11.9033L4.23769 12.4636L1.59387 14.4818C3.2729 17.7454 6.71419 19.9999 10.703 19.9999C13.458 19.9999 15.7678 19.109 17.4562 17.5818L14.1445 15.0636C13.2354 15.6636 12.0759 16.0273 10.703 16.0273C8.04998 16.0273 5.79588 14.2727 4.98877 11.9091L4.9846 11.9033Z" fill="#34A853"/>
<path id="Vector_3" d="M1.59478 5.51831C0.899088 6.86371 0.500244 8.3819 0.500244 10.0001C0.500244 11.6182 0.899088 13.1364 1.59478 14.4818C1.59478 14.4908 4.99001 11.9 4.99001 11.9C4.78593 11.3 4.6653 10.6637 4.6653 9.99995C4.6653 9.33623 4.78593 8.69991 4.99001 8.09991L1.59478 5.51831Z" fill="#FBBC05"/>
<path id="Vector_4" d="M10.7032 3.9818C12.206 3.9818 13.5418 4.49088 14.6086 5.47271L17.5306 2.60912C15.7588 0.990968 13.4584 0 10.7032 0C6.7144 0 3.2729 2.24544 1.59387 5.51817L4.98899 8.09999C5.79599 5.73633 8.05019 3.9818 10.7032 3.9818Z" fill="#EA4335"/>
</g>
</svg>
