<svg width="168" height="168" viewBox="0 0 168 168" fill="none" xmlns="http://www.w3.org/2000/svg">
<path d="M83.9999 14.1572C85.7026 14.1572 87.0936 12.7662 87.0936 11.0635V3.59369C87.0936 1.89102 85.7026 0.5 83.9999 0.5C82.2973 0.5 80.9062 1.89102 80.9062 3.59369V11.0635C80.9062 12.7954 82.3005 14.1572 83.9999 14.1572Z" fill="#85D94C" stroke="#85D94C"/>
<path d="M83.9999 153.839C82.2973 153.839 80.9062 155.23 80.9062 156.933V164.402C80.9062 166.105 82.2973 167.496 83.9999 167.496C85.7026 167.496 87.0936 166.105 87.0936 164.402V156.933C87.0936 155.201 85.6993 153.839 83.9999 153.839Z" fill="#85D94C" stroke="#85D94C"/>
<path d="M30.2358 34.6298L30.2367 34.6306C30.8571 35.251 31.6364 35.5292 32.4318 35.5292C33.2386 35.5292 34.0091 35.2177 34.6177 34.6396L34.6178 34.6397L34.6268 34.6306C35.8336 33.4238 35.8336 31.4732 34.6268 30.2664L29.3357 24.9753C28.1289 23.7685 26.1783 23.7685 24.9715 24.9753C23.7649 26.1819 23.7647 28.1322 24.971 29.339C24.9712 29.3392 24.9714 29.3393 24.9715 29.3395L30.2358 34.6298Z" fill="#85D94C" stroke="#85D94C"/>
<path d="M133.389 137.73L133.743 137.376L133.389 137.73L138.681 143.021C139.301 143.641 140.08 143.919 140.876 143.919C141.682 143.919 142.453 143.608 143.062 143.03L143.062 143.03L143.071 143.021C144.278 141.814 144.278 139.863 143.071 138.657L143.07 138.656L137.754 133.365C137.754 133.365 137.753 133.365 137.753 133.365C136.546 132.159 134.596 132.159 133.389 133.365C132.183 134.572 132.183 136.523 133.389 137.73Z" fill="#85D94C" stroke="#85D94C"/>
<path d="M11.0635 80.9043H3.59369C1.89102 80.9043 0.5 82.2953 0.5 83.998C0.5 85.7007 1.89102 87.0917 3.59369 87.0917H11.0635C12.7662 87.0917 14.1572 85.7007 14.1572 83.998C14.1572 82.2986 12.7954 80.9043 11.0635 80.9043Z" fill="#85D94C" stroke="#85D94C"/>
<path d="M164.403 80.9043H156.934C155.231 80.9043 153.84 82.2953 153.84 83.998C153.84 85.7007 155.231 87.0917 156.934 87.0917H164.403C166.106 87.0917 167.497 85.7007 167.497 83.998C167.497 82.2953 166.106 80.9043 164.403 80.9043Z" fill="#85D94C" stroke="#85D94C"/>
<path d="M29.3329 143.03L29.3331 143.03L29.3421 143.021L34.6332 137.73C35.84 136.523 35.84 134.572 34.6332 133.365C33.4264 132.159 31.4499 132.159 30.2431 133.365L24.952 138.657C23.7452 139.863 23.7452 141.814 24.952 143.021C25.5724 143.641 26.3517 143.919 27.147 143.919C27.9539 143.919 28.7244 143.608 29.3329 143.03Z" fill="#85D94C" stroke="#85D94C"/>
<path d="M137.745 34.6396L137.745 34.6397L137.754 34.6306L143.045 29.3395C144.252 28.1327 144.252 26.1821 143.045 24.9753C141.838 23.7685 139.887 23.7685 138.681 24.9753L133.389 30.2664C132.183 31.4732 132.183 33.4238 133.389 34.6306C133.979 35.2206 134.783 35.5292 135.559 35.5292C136.365 35.5292 137.136 35.2177 137.745 34.6396Z" fill="#85D94C" stroke="#85D94C"/>
<path d="M62.0115 74.9498H49.7306C48.5838 74.9498 47.6836 75.85 47.6836 76.9968V109.746C47.6836 110.892 48.5838 111.793 49.7306 111.793H62.0115C63.1583 111.793 64.0574 110.892 64.0574 109.746V76.9968C64.0585 75.85 63.1583 74.9498 62.0115 74.9498Z" fill="#85D94C"/>
<path d="M121.23 78.8291C121.23 75.4937 118.939 72.1181 114.566 72.1181H94.7363C97.5691 67.0508 98.402 59.9234 96.4329 54.7085C94.9864 50.8728 92.2221 48.6347 88.6448 48.407L88.587 48.4022C86.2592 48.2595 84.244 50.0033 84.0505 52.3276C83.5408 57.5 81.2744 66.6484 78.0263 69.8965C75.2914 72.6314 72.9506 73.777 69.0701 75.6742C68.5085 75.9491 67.895 76.2488 67.2461 76.572C67.2579 76.7124 67.265 76.8528 67.265 76.9968V109.412C67.7334 109.572 68.1959 109.731 68.6501 109.887C75.0543 112.095 80.5889 114 89.0483 114H105.08C109.455 114 111.744 110.623 111.744 107.289C111.744 106.299 111.543 105.307 111.145 104.398C112.603 104.137 113.878 103.436 114.823 102.363C115.895 101.144 116.487 99.5246 116.487 97.802C116.487 96.8157 116.286 95.8234 115.89 94.9173C119.402 94.3109 121.231 91.2964 121.231 88.3161C121.231 86.5877 120.615 84.8474 119.414 83.5732C120.612 82.2978 121.23 80.5575 121.23 78.8291Z" fill="#85D94C"/>
</svg>
