<svg width="40" height="40" viewBox="0 0 40 40" fill="none" xmlns="http://www.w3.org/2000/svg">
<rect width="40" height="40" rx="8" fill="#4F6AF4"/>
<path d="M23.5 16C25.2239 16 26.8772 16.6808 28.0962 17.8925C29.3152 19.1043 30 20.7478 30 22.4615V27.8333C30 29.03 29.03 30 27.8333 30C26.6367 30 25.6667 29.03 25.6667 27.8333V22.4615C25.6667 21.8903 25.4384 21.3425 25.0321 20.9385C24.6257 20.5346 24.0746 20.3077 23.5 20.3077C22.9254 20.3077 22.3743 20.5346 21.9679 20.9385C21.5616 21.3425 21.3333 21.8903 21.3333 22.4615V27.8333C21.3333 29.03 20.3633 30 19.1667 30C17.97 30 17 29.03 17 27.8333V22.4615C17 20.7478 17.6848 19.1043 18.9038 17.8925C20.1228 16.6808 21.7761 16 23.5 16Z" fill="#FAFAFA"/>
<path d="M14 28V19C14 17.8954 13.1046 17 12 17C10.8954 17 10 17.8954 10 19V28C10 29.1046 10.8954 30 12 30C13.1046 30 14 29.1046 14 28Z" fill="#FAFAFA"/>
<path d="M12 13C13.1046 13 14 12.1046 14 11C14 9.89543 13.1046 9 12 9C10.8954 9 10 9.89543 10 11C10 12.1046 10.8954 13 12 13Z" fill="#FAFAFA"/>
</svg>
