<svg width="283" height="40" viewBox="0 0 283 40" fill="none" xmlns="http://www.w3.org/2000/svg">
<g clip-path="url(#clip0_63_323)">
<mask id="path-1-inside-1_63_323" fill="white">
<path d="M64.5121 11.2892L61.3867 14.5221C60.5552 13.4819 59.0355 12.8072 57.7739 12.8072C56.5123 12.8072 54.9353 13.2289 54.9353 14.8032C54.9353 16.1245 56.1396 16.5462 58.0607 17.1365C60.8133 18.008 64.3687 19.1606 64.3687 23.1245C64.3687 27.7068 60.6126 29.759 56.5983 29.759C53.7024 29.759 50.7777 28.7189 49 26.8916L52.2114 23.6867C53.1863 24.8956 54.9927 25.7952 56.5983 25.7952C58.0893 25.7952 59.4083 25.2329 59.4083 23.6305C59.4083 22.1125 57.8599 21.6345 55.1934 20.7912C52.6128 19.9759 50.0036 18.6827 50.0036 15.0843C50.0036 10.6707 54.0751 8.84337 57.8599 8.84337C60.1538 8.84337 62.7343 9.68675 64.5121 11.2892Z"/>
<path d="M81.4813 29.253H76.7503V21.6626C76.7503 20.0884 76.3489 18.7108 74.6572 18.7108C73.0228 18.7108 72.1053 20.0321 72.1053 21.6908V29.253H67.4029V8H72.1053V17.0241H72.1626C72.7934 15.8996 74.2844 14.8594 76.2628 14.8594C80.1337 14.8594 81.4813 17.7831 81.4813 20.5944V29.253Z"/>
<path d="M93.472 23.6305V23.1526H92.8699C90.8054 23.1526 88.4829 23.4056 88.4829 25.0643C88.4829 26.1325 89.5725 26.498 90.5187 26.498C92.4111 26.498 93.472 25.3735 93.472 23.6305ZM87.2213 19.6667L84.8414 17.1647C86.5045 15.6185 88.8843 14.8032 91.2068 14.8032C95.9952 14.8032 97.7729 17.1084 97.7729 22.1968V29.253H93.472V27.7631H93.386C92.6692 28.9157 91.0348 29.5904 89.3431 29.5904C87.0779 29.5904 84.1533 28.494 84.1533 25.2048C84.1533 21.1566 89.171 20.4819 93.3286 20.4819V20.257C93.3286 18.8795 92.2104 18.2329 90.7481 18.2329C89.4004 18.2329 88.0815 18.8795 87.2213 19.6667Z"/>
<path d="M116.422 29.253H112.092V27.4257H112.035C111.118 28.8313 109.254 29.6466 107.361 29.6466C103.06 29.6466 100.566 26.1044 100.566 22.1968C100.566 18.2892 103.146 14.8594 107.304 14.8594C109.397 14.8594 110.859 15.8153 111.662 16.743H111.72V8H116.422V29.253ZM111.92 22.2249C111.92 20.4538 110.601 18.6265 108.48 18.6265C106.243 18.6265 105.096 20.3976 105.096 22.1968C105.096 24.0241 106.243 25.8233 108.48 25.8233C110.601 25.8233 111.92 24.0522 111.92 22.2249Z"/>
<path d="M123.94 20.6506H129.99C129.99 19.1888 129.044 17.9799 127.18 17.9799C125.374 17.9799 124.055 19.2169 123.94 20.6506ZM134.32 22.4217C134.32 22.7871 134.32 23.1807 134.291 23.5181H123.94C124.084 25.0643 125.661 26.1606 127.352 26.1606C128.843 26.1606 129.875 25.5422 130.506 24.6988L133.775 26.7229C132.427 28.6345 130.191 29.7028 127.295 29.7028C122.994 29.7028 119.438 27.0321 119.438 22.3092C119.438 17.7269 122.822 14.8032 127.152 14.8032C131.366 14.8032 134.32 17.6426 134.32 22.4217Z"/>
<path d="M146.698 14.9719L146.497 19.0201C146.067 18.9076 145.666 18.8795 145.293 18.8795C142.77 18.8795 141.938 20.9036 141.938 22.0562V29.253H137.236V15.253H141.766V17.2771H141.824C142.54 15.8715 143.945 14.8594 145.694 14.8594C146.067 14.8594 146.469 14.8875 146.698 14.9719Z"/>
<path d="M167.975 29.253H155.187V9.3494H160.119V25.0643H167.975V29.253Z"/>
<path d="M173.303 20.6506H179.353C179.353 19.1888 178.406 17.9799 176.543 17.9799C174.736 17.9799 173.417 19.2169 173.303 20.6506ZM183.682 22.4217C183.682 22.7871 183.682 23.1807 183.653 23.5181H173.303C173.446 25.0643 175.023 26.1606 176.715 26.1606C178.206 26.1606 179.238 25.5422 179.869 24.6988L183.137 26.7229C181.79 28.6345 179.553 29.7028 176.657 29.7028C172.356 29.7028 168.801 27.0321 168.801 22.3092C168.801 17.7269 172.184 14.8032 176.514 14.8032C180.729 14.8032 183.682 17.6426 183.682 22.4217Z"/>
<path d="M194.86 23.6305V23.1526H194.258C192.194 23.1526 189.871 23.4056 189.871 25.0643C189.871 26.1325 190.961 26.498 191.907 26.498C193.799 26.498 194.86 25.3735 194.86 23.6305ZM188.609 19.6667L186.23 17.1647C187.893 15.6185 190.272 14.8032 192.595 14.8032C197.383 14.8032 199.161 17.1084 199.161 22.1968V29.253H194.86V27.7631H194.774C194.057 28.9157 192.423 29.5904 190.731 29.5904C188.466 29.5904 185.541 28.494 185.541 25.2048C185.541 21.1566 190.559 20.4819 194.717 20.4819V20.257C194.717 18.8795 193.599 18.2329 192.136 18.2329C190.789 18.2329 189.47 18.8795 188.609 19.6667Z"/>
<path d="M212.133 14.9719L211.932 19.0201C211.502 18.9076 211.101 18.8795 210.728 18.8795C208.205 18.8795 207.373 20.9036 207.373 22.0562V29.253H202.671V15.253H207.201V17.2771H207.258C207.975 15.8715 209.38 14.8594 211.129 14.8594C211.502 14.8594 211.904 14.8875 212.133 14.9719Z"/>
<path d="M228.146 29.253H223.415V21.6064C223.415 20.0602 222.985 18.6546 221.293 18.6546C219.63 18.6546 218.77 20.0602 218.77 21.6626V29.253H214.039V15.253H218.598V17.1928H218.656C219.315 15.9558 220.949 14.8594 222.928 14.8594C226.77 14.8594 228.146 17.7831 228.146 20.5944V29.253Z"/>
<path d="M236.812 10.7831C236.812 12.2169 235.607 13.3133 234.116 13.3133C232.597 13.3133 231.421 12.1606 231.421 10.7831C231.421 9.43373 232.597 8.25301 234.116 8.25301C235.607 8.25301 236.812 9.37751 236.812 10.7831ZM236.467 29.253H231.765V15.253H236.467V29.253Z"/>
<path d="M254.299 29.253H249.568V21.6064C249.568 20.0602 249.138 18.6546 247.446 18.6546C245.783 18.6546 244.923 20.0602 244.923 21.6626V29.253H240.192V15.253H244.751V17.1928H244.808C245.468 15.9558 247.102 14.8594 249.081 14.8594C252.923 14.8594 254.299 17.7831 254.299 20.5944V29.253Z"/>
<path d="M273 27.9317C273 33.4137 269.674 36 264.599 36C262.104 36 259.18 35.2129 257.259 33.8072L259.61 30.5181C260.986 31.6988 262.735 32.2892 264.341 32.2892C267.093 32.2892 268.384 30.7149 268.384 28.3815V27.5382H268.298C267.409 28.6626 265.86 29.3936 263.968 29.3936C259.638 29.3936 257.144 26.0763 257.144 22.1968C257.144 18.3173 259.638 14.8594 263.939 14.8594C265.717 14.8594 267.495 15.5622 268.498 17.0522H268.556V15.253H273V27.9317ZM268.527 22.1687C268.527 20.257 267.179 18.6265 265.058 18.6265C262.936 18.6265 261.703 20.2289 261.703 22.1687C261.703 24.0241 262.936 25.739 265.058 25.739C267.208 25.739 268.527 24.0803 268.527 22.1687Z"/>
</mask>
<path d="M64.5121 11.2892L61.3867 14.5221C60.5552 13.4819 59.0355 12.8072 57.7739 12.8072C56.5123 12.8072 54.9353 13.2289 54.9353 14.8032C54.9353 16.1245 56.1396 16.5462 58.0607 17.1365C60.8133 18.008 64.3687 19.1606 64.3687 23.1245C64.3687 27.7068 60.6126 29.759 56.5983 29.759C53.7024 29.759 50.7777 28.7189 49 26.8916L52.2114 23.6867C53.1863 24.8956 54.9927 25.7952 56.5983 25.7952C58.0893 25.7952 59.4083 25.2329 59.4083 23.6305C59.4083 22.1125 57.8599 21.6345 55.1934 20.7912C52.6128 19.9759 50.0036 18.6827 50.0036 15.0843C50.0036 10.6707 54.0751 8.84337 57.8599 8.84337C60.1538 8.84337 62.7343 9.68675 64.5121 11.2892Z" fill="#1F1F1F"/>
<path d="M81.4813 29.253H76.7503V21.6626C76.7503 20.0884 76.3489 18.7108 74.6572 18.7108C73.0228 18.7108 72.1053 20.0321 72.1053 21.6908V29.253H67.4029V8H72.1053V17.0241H72.1626C72.7934 15.8996 74.2844 14.8594 76.2628 14.8594C80.1337 14.8594 81.4813 17.7831 81.4813 20.5944V29.253Z" fill="#1F1F1F"/>
<path d="M93.472 23.6305V23.1526H92.8699C90.8054 23.1526 88.4829 23.4056 88.4829 25.0643C88.4829 26.1325 89.5725 26.498 90.5187 26.498C92.4111 26.498 93.472 25.3735 93.472 23.6305ZM87.2213 19.6667L84.8414 17.1647C86.5045 15.6185 88.8843 14.8032 91.2068 14.8032C95.9952 14.8032 97.7729 17.1084 97.7729 22.1968V29.253H93.472V27.7631H93.386C92.6692 28.9157 91.0348 29.5904 89.3431 29.5904C87.0779 29.5904 84.1533 28.494 84.1533 25.2048C84.1533 21.1566 89.171 20.4819 93.3286 20.4819V20.257C93.3286 18.8795 92.2104 18.2329 90.7481 18.2329C89.4004 18.2329 88.0815 18.8795 87.2213 19.6667Z" fill="#1F1F1F"/>
<path d="M116.422 29.253H112.092V27.4257H112.035C111.118 28.8313 109.254 29.6466 107.361 29.6466C103.06 29.6466 100.566 26.1044 100.566 22.1968C100.566 18.2892 103.146 14.8594 107.304 14.8594C109.397 14.8594 110.859 15.8153 111.662 16.743H111.72V8H116.422V29.253ZM111.92 22.2249C111.92 20.4538 110.601 18.6265 108.48 18.6265C106.243 18.6265 105.096 20.3976 105.096 22.1968C105.096 24.0241 106.243 25.8233 108.48 25.8233C110.601 25.8233 111.92 24.0522 111.92 22.2249Z" fill="#1F1F1F"/>
<path d="M123.94 20.6506H129.99C129.99 19.1888 129.044 17.9799 127.18 17.9799C125.374 17.9799 124.055 19.2169 123.94 20.6506ZM134.32 22.4217C134.32 22.7871 134.32 23.1807 134.291 23.5181H123.94C124.084 25.0643 125.661 26.1606 127.352 26.1606C128.843 26.1606 129.875 25.5422 130.506 24.6988L133.775 26.7229C132.427 28.6345 130.191 29.7028 127.295 29.7028C122.994 29.7028 119.438 27.0321 119.438 22.3092C119.438 17.7269 122.822 14.8032 127.152 14.8032C131.366 14.8032 134.32 17.6426 134.32 22.4217Z" fill="#1F1F1F"/>
<path d="M146.698 14.9719L146.497 19.0201C146.067 18.9076 145.666 18.8795 145.293 18.8795C142.77 18.8795 141.938 20.9036 141.938 22.0562V29.253H137.236V15.253H141.766V17.2771H141.824C142.54 15.8715 143.945 14.8594 145.694 14.8594C146.067 14.8594 146.469 14.8875 146.698 14.9719Z" fill="#1F1F1F"/>
<path d="M167.975 29.253H155.187V9.3494H160.119V25.0643H167.975V29.253Z" fill="#1F1F1F"/>
<path d="M173.303 20.6506H179.353C179.353 19.1888 178.406 17.9799 176.543 17.9799C174.736 17.9799 173.417 19.2169 173.303 20.6506ZM183.682 22.4217C183.682 22.7871 183.682 23.1807 183.653 23.5181H173.303C173.446 25.0643 175.023 26.1606 176.715 26.1606C178.206 26.1606 179.238 25.5422 179.869 24.6988L183.137 26.7229C181.79 28.6345 179.553 29.7028 176.657 29.7028C172.356 29.7028 168.801 27.0321 168.801 22.3092C168.801 17.7269 172.184 14.8032 176.514 14.8032C180.729 14.8032 183.682 17.6426 183.682 22.4217Z" fill="#1F1F1F"/>
<path d="M194.86 23.6305V23.1526H194.258C192.194 23.1526 189.871 23.4056 189.871 25.0643C189.871 26.1325 190.961 26.498 191.907 26.498C193.799 26.498 194.86 25.3735 194.86 23.6305ZM188.609 19.6667L186.23 17.1647C187.893 15.6185 190.272 14.8032 192.595 14.8032C197.383 14.8032 199.161 17.1084 199.161 22.1968V29.253H194.86V27.7631H194.774C194.057 28.9157 192.423 29.5904 190.731 29.5904C188.466 29.5904 185.541 28.494 185.541 25.2048C185.541 21.1566 190.559 20.4819 194.717 20.4819V20.257C194.717 18.8795 193.599 18.2329 192.136 18.2329C190.789 18.2329 189.47 18.8795 188.609 19.6667Z" fill="#1F1F1F"/>
<path d="M212.133 14.9719L211.932 19.0201C211.502 18.9076 211.101 18.8795 210.728 18.8795C208.205 18.8795 207.373 20.9036 207.373 22.0562V29.253H202.671V15.253H207.201V17.2771H207.258C207.975 15.8715 209.38 14.8594 211.129 14.8594C211.502 14.8594 211.904 14.8875 212.133 14.9719Z" fill="#1F1F1F"/>
<path d="M228.146 29.253H223.415V21.6064C223.415 20.0602 222.985 18.6546 221.293 18.6546C219.63 18.6546 218.77 20.0602 218.77 21.6626V29.253H214.039V15.253H218.598V17.1928H218.656C219.315 15.9558 220.949 14.8594 222.928 14.8594C226.77 14.8594 228.146 17.7831 228.146 20.5944V29.253Z" fill="#1F1F1F"/>
<path d="M236.812 10.7831C236.812 12.2169 235.607 13.3133 234.116 13.3133C232.597 13.3133 231.421 12.1606 231.421 10.7831C231.421 9.43373 232.597 8.25301 234.116 8.25301C235.607 8.25301 236.812 9.37751 236.812 10.7831ZM236.467 29.253H231.765V15.253H236.467V29.253Z" fill="#1F1F1F"/>
<path d="M254.299 29.253H249.568V21.6064C249.568 20.0602 249.138 18.6546 247.446 18.6546C245.783 18.6546 244.923 20.0602 244.923 21.6626V29.253H240.192V15.253H244.751V17.1928H244.808C245.468 15.9558 247.102 14.8594 249.081 14.8594C252.923 14.8594 254.299 17.7831 254.299 20.5944V29.253Z" fill="#1F1F1F"/>
<path d="M273 27.9317C273 33.4137 269.674 36 264.599 36C262.104 36 259.18 35.2129 257.259 33.8072L259.61 30.5181C260.986 31.6988 262.735 32.2892 264.341 32.2892C267.093 32.2892 268.384 30.7149 268.384 28.3815V27.5382H268.298C267.409 28.6626 265.86 29.3936 263.968 29.3936C259.638 29.3936 257.144 26.0763 257.144 22.1968C257.144 18.3173 259.638 14.8594 263.939 14.8594C265.717 14.8594 267.495 15.5622 268.498 17.0522H268.556V15.253H273V27.9317ZM268.527 22.1687C268.527 20.257 267.179 18.6265 265.058 18.6265C262.936 18.6265 261.703 20.2289 261.703 22.1687C261.703 24.0241 262.936 25.739 265.058 25.739C267.208 25.739 268.527 24.0803 268.527 22.1687Z" fill="#1F1F1F"/>
<path d="M64.5121 11.2892L61.3867 14.5221C60.5552 13.4819 59.0355 12.8072 57.7739 12.8072C56.5123 12.8072 54.9353 13.2289 54.9353 14.8032C54.9353 16.1245 56.1396 16.5462 58.0607 17.1365C60.8133 18.008 64.3687 19.1606 64.3687 23.1245C64.3687 27.7068 60.6126 29.759 56.5983 29.759C53.7024 29.759 50.7777 28.7189 49 26.8916L52.2114 23.6867C53.1863 24.8956 54.9927 25.7952 56.5983 25.7952C58.0893 25.7952 59.4083 25.2329 59.4083 23.6305C59.4083 22.1125 57.8599 21.6345 55.1934 20.7912C52.6128 19.9759 50.0036 18.6827 50.0036 15.0843C50.0036 10.6707 54.0751 8.84337 57.8599 8.84337C60.1538 8.84337 62.7343 9.68675 64.5121 11.2892Z" stroke="#FAFAFA" stroke-width="0.4" mask="url(#path-1-inside-1_63_323)"/>
<path d="M81.4813 29.253H76.7503V21.6626C76.7503 20.0884 76.3489 18.7108 74.6572 18.7108C73.0228 18.7108 72.1053 20.0321 72.1053 21.6908V29.253H67.4029V8H72.1053V17.0241H72.1626C72.7934 15.8996 74.2844 14.8594 76.2628 14.8594C80.1337 14.8594 81.4813 17.7831 81.4813 20.5944V29.253Z" stroke="#FAFAFA" stroke-width="0.4" mask="url(#path-1-inside-1_63_323)"/>
<path d="M93.472 23.6305V23.1526H92.8699C90.8054 23.1526 88.4829 23.4056 88.4829 25.0643C88.4829 26.1325 89.5725 26.498 90.5187 26.498C92.4111 26.498 93.472 25.3735 93.472 23.6305ZM87.2213 19.6667L84.8414 17.1647C86.5045 15.6185 88.8843 14.8032 91.2068 14.8032C95.9952 14.8032 97.7729 17.1084 97.7729 22.1968V29.253H93.472V27.7631H93.386C92.6692 28.9157 91.0348 29.5904 89.3431 29.5904C87.0779 29.5904 84.1533 28.494 84.1533 25.2048C84.1533 21.1566 89.171 20.4819 93.3286 20.4819V20.257C93.3286 18.8795 92.2104 18.2329 90.7481 18.2329C89.4004 18.2329 88.0815 18.8795 87.2213 19.6667Z" stroke="#FAFAFA" stroke-width="0.4" mask="url(#path-1-inside-1_63_323)"/>
<path d="M116.422 29.253H112.092V27.4257H112.035C111.118 28.8313 109.254 29.6466 107.361 29.6466C103.06 29.6466 100.566 26.1044 100.566 22.1968C100.566 18.2892 103.146 14.8594 107.304 14.8594C109.397 14.8594 110.859 15.8153 111.662 16.743H111.72V8H116.422V29.253ZM111.92 22.2249C111.92 20.4538 110.601 18.6265 108.48 18.6265C106.243 18.6265 105.096 20.3976 105.096 22.1968C105.096 24.0241 106.243 25.8233 108.48 25.8233C110.601 25.8233 111.92 24.0522 111.92 22.2249Z" stroke="#FAFAFA" stroke-width="0.4" mask="url(#path-1-inside-1_63_323)"/>
<path d="M123.94 20.6506H129.99C129.99 19.1888 129.044 17.9799 127.18 17.9799C125.374 17.9799 124.055 19.2169 123.94 20.6506ZM134.32 22.4217C134.32 22.7871 134.32 23.1807 134.291 23.5181H123.94C124.084 25.0643 125.661 26.1606 127.352 26.1606C128.843 26.1606 129.875 25.5422 130.506 24.6988L133.775 26.7229C132.427 28.6345 130.191 29.7028 127.295 29.7028C122.994 29.7028 119.438 27.0321 119.438 22.3092C119.438 17.7269 122.822 14.8032 127.152 14.8032C131.366 14.8032 134.32 17.6426 134.32 22.4217Z" stroke="#FAFAFA" stroke-width="0.4" mask="url(#path-1-inside-1_63_323)"/>
<path d="M146.698 14.9719L146.497 19.0201C146.067 18.9076 145.666 18.8795 145.293 18.8795C142.77 18.8795 141.938 20.9036 141.938 22.0562V29.253H137.236V15.253H141.766V17.2771H141.824C142.54 15.8715 143.945 14.8594 145.694 14.8594C146.067 14.8594 146.469 14.8875 146.698 14.9719Z" stroke="#FAFAFA" stroke-width="0.4" mask="url(#path-1-inside-1_63_323)"/>
<path d="M167.975 29.253H155.187V9.3494H160.119V25.0643H167.975V29.253Z" stroke="#FAFAFA" stroke-width="0.4" mask="url(#path-1-inside-1_63_323)"/>
<path d="M173.303 20.6506H179.353C179.353 19.1888 178.406 17.9799 176.543 17.9799C174.736 17.9799 173.417 19.2169 173.303 20.6506ZM183.682 22.4217C183.682 22.7871 183.682 23.1807 183.653 23.5181H173.303C173.446 25.0643 175.023 26.1606 176.715 26.1606C178.206 26.1606 179.238 25.5422 179.869 24.6988L183.137 26.7229C181.79 28.6345 179.553 29.7028 176.657 29.7028C172.356 29.7028 168.801 27.0321 168.801 22.3092C168.801 17.7269 172.184 14.8032 176.514 14.8032C180.729 14.8032 183.682 17.6426 183.682 22.4217Z" stroke="#FAFAFA" stroke-width="0.4" mask="url(#path-1-inside-1_63_323)"/>
<path d="M194.86 23.6305V23.1526H194.258C192.194 23.1526 189.871 23.4056 189.871 25.0643C189.871 26.1325 190.961 26.498 191.907 26.498C193.799 26.498 194.86 25.3735 194.86 23.6305ZM188.609 19.6667L186.23 17.1647C187.893 15.6185 190.272 14.8032 192.595 14.8032C197.383 14.8032 199.161 17.1084 199.161 22.1968V29.253H194.86V27.7631H194.774C194.057 28.9157 192.423 29.5904 190.731 29.5904C188.466 29.5904 185.541 28.494 185.541 25.2048C185.541 21.1566 190.559 20.4819 194.717 20.4819V20.257C194.717 18.8795 193.599 18.2329 192.136 18.2329C190.789 18.2329 189.47 18.8795 188.609 19.6667Z" stroke="#FAFAFA" stroke-width="0.4" mask="url(#path-1-inside-1_63_323)"/>
<path d="M212.133 14.9719L211.932 19.0201C211.502 18.9076 211.101 18.8795 210.728 18.8795C208.205 18.8795 207.373 20.9036 207.373 22.0562V29.253H202.671V15.253H207.201V17.2771H207.258C207.975 15.8715 209.38 14.8594 211.129 14.8594C211.502 14.8594 211.904 14.8875 212.133 14.9719Z" stroke="#FAFAFA" stroke-width="0.4" mask="url(#path-1-inside-1_63_323)"/>
<path d="M228.146 29.253H223.415V21.6064C223.415 20.0602 222.985 18.6546 221.293 18.6546C219.63 18.6546 218.77 20.0602 218.77 21.6626V29.253H214.039V15.253H218.598V17.1928H218.656C219.315 15.9558 220.949 14.8594 222.928 14.8594C226.77 14.8594 228.146 17.7831 228.146 20.5944V29.253Z" stroke="#FAFAFA" stroke-width="0.4" mask="url(#path-1-inside-1_63_323)"/>
<path d="M236.812 10.7831C236.812 12.2169 235.607 13.3133 234.116 13.3133C232.597 13.3133 231.421 12.1606 231.421 10.7831C231.421 9.43373 232.597 8.25301 234.116 8.25301C235.607 8.25301 236.812 9.37751 236.812 10.7831ZM236.467 29.253H231.765V15.253H236.467V29.253Z" stroke="#FAFAFA" stroke-width="0.4" mask="url(#path-1-inside-1_63_323)"/>
<path d="M254.299 29.253H249.568V21.6064C249.568 20.0602 249.138 18.6546 247.446 18.6546C245.783 18.6546 244.923 20.0602 244.923 21.6626V29.253H240.192V15.253H244.751V17.1928H244.808C245.468 15.9558 247.102 14.8594 249.081 14.8594C252.923 14.8594 254.299 17.7831 254.299 20.5944V29.253Z" stroke="#FAFAFA" stroke-width="0.4" mask="url(#path-1-inside-1_63_323)"/>
<path d="M273 27.9317C273 33.4137 269.674 36 264.599 36C262.104 36 259.18 35.2129 257.259 33.8072L259.61 30.5181C260.986 31.6988 262.735 32.2892 264.341 32.2892C267.093 32.2892 268.384 30.7149 268.384 28.3815V27.5382H268.298C267.409 28.6626 265.86 29.3936 263.968 29.3936C259.638 29.3936 257.144 26.0763 257.144 22.1968C257.144 18.3173 259.638 14.8594 263.939 14.8594C265.717 14.8594 267.495 15.5622 268.498 17.0522H268.556V15.253H273V27.9317ZM268.527 22.1687C268.527 20.257 267.179 18.6265 265.058 18.6265C262.936 18.6265 261.703 20.2289 261.703 22.1687C261.703 24.0241 262.936 25.739 265.058 25.739C267.208 25.739 268.527 24.0803 268.527 22.1687Z" stroke="#FAFAFA" stroke-width="0.4" mask="url(#path-1-inside-1_63_323)"/>
<g filter="url(#filter0_d_63_323)">
<path d="M3.64633 25.5239L27.3633 20.8151L30.5087 33.3768L6.79178 38.0857L3.64633 25.5239Z" fill="#2D3C89"/>
<path d="M27.3633 20.8151L30.5087 33.3768L8.75697 19.7874L5.69757 7.21174L27.3633 20.8151Z" fill="#3E54C2"/>
<path d="M5.69757 7.21174L8.75697 19.7874L32.4541 15.4954L29.459 3.15971L5.69757 7.21174Z" fill="#4F6AF4"/>
</g>
</g>
<defs>
<filter id="filter0_d_63_323" x="2.64453" y="3.15967" width="30.8086" height="36.926" filterUnits="userSpaceOnUse" color-interpolation-filters="sRGB">
<feFlood flood-opacity="0" result="BackgroundImageFix"/>
<feColorMatrix in="SourceAlpha" type="matrix" values="0 0 0 0 0 0 0 0 0 0 0 0 0 0 0 0 0 0 127 0" result="hardAlpha"/>
<feOffset dy="1"/>
<feGaussianBlur stdDeviation="0.5"/>
<feComposite in2="hardAlpha" operator="out"/>
<feColorMatrix type="matrix" values="0 0 0 0 0.0345313 0 0 0 0 0.0553957 0 0 0 0 0.1625 0 0 0 0.09 0"/>
<feBlend mode="normal" in2="BackgroundImageFix" result="effect1_dropShadow_63_323"/>
<feBlend mode="normal" in="SourceGraphic" in2="effect1_dropShadow_63_323" result="shape"/>
</filter>
<clipPath id="clip0_63_323">
<rect width="283" height="40" fill="white"/>
</clipPath>
</defs>
</svg>
