<svg width="12" height="24" viewBox="0 0 12 24" fill="none" xmlns="http://www.w3.org/2000/svg">
<path d="M3.8195 24H8.1805C10.2812 24 12 21.9878 12 19.5284V10.3254C12 7.86598 10.2812 5.85375 8.1805 5.85375H3.81992C3.66548 5.84471 3.52149 5.77038 3.42111 5.648C3.32072 5.52563 3.27294 5.36592 3.28854 5.20589C3.44202 2.75288 5.54758 1.75613 6.00896 1.75613C6.50898 1.75613 7.00879 0.585461 6.00896 0C0.579653 0 0.0347872 5.84218 0.00225163 7.76772C0.00209141 7.77609 0 7.78396 0 7.79233V19.5281C0 21.9874 1.71878 23.9998 3.81934 23.9998L3.8195 24Z" fill="#4F6AF4"/>
</svg>
