<svg width="14" height="26" viewBox="0 0 14 26" fill="none" xmlns="http://www.w3.org/2000/svg">
<path d="M4.81956 25H9.18061C11.2814 25 13 22.9878 13 20.5284V11.3254C13 8.86598 11.2812 6.85375 9.18061 6.85375H4.81997C4.66553 6.84471 4.52154 6.77038 4.42115 6.648C4.32077 6.52563 4.27282 6.36592 4.28859 6.20589C4.44207 3.75288 6.54778 2.75613 7.00905 2.75613C7.50907 2.75613 8.00905 1.58546 7.00905 1C1.57966 1 1.03479 6.84218 1.00225 8.76772C1.00225 8.77609 1 8.78396 1 8.79233V20.5281C1 22.9874 2.71881 25 4.81956 25Z" stroke="#4F6AF4" stroke-width="1.5"/>
</svg>
