<svg width="24" height="24" viewBox="0 0 24 24" fill="none" xmlns="http://www.w3.org/2000/svg">
<path d="M12 6L13.545 8.96215L17 9.44006L14.5 11.7445L15.09 15L12 13.4621L8.91 15L9.5 11.7445L7 9.44006L10.455 8.96215L12 6Z" stroke="black" stroke-width="1.5" stroke-linecap="round" stroke-linejoin="round"/>
<path d="M5 1.75H19C20.2426 1.75 21.25 2.75736 21.25 4V16.3014C21.25 17.0918 20.8353 17.8242 20.1576 18.2308L13.1576 22.4308C12.4451 22.8583 11.5549 22.8583 10.8424 22.4308L3.84239 18.2308C3.16467 17.8242 2.75 17.0918 2.75 16.3014V4C2.75 2.75736 3.75736 1.75 5 1.75Z" stroke="black" stroke-width="1.5"/>
</svg>
