<svg width="104" height="104" viewBox="0 0 104 104" fill="none" xmlns="http://www.w3.org/2000/svg">
<path fill-rule="evenodd" clip-rule="evenodd" d="M103.665 51.9999C103.665 80.5346 80.5334 103.667 51.9987 103.667C23.464 103.667 0.332031 80.5346 0.332031 51.9999C0.332031 23.4652 23.464 0.333252 51.9987 0.333252C80.5334 0.333252 103.665 23.4652 103.665 51.9999ZM51.9987 58.3333C44.4382 58.3333 38.4628 61.3604 34.4689 64.265C32.4643 65.7229 30.9148 67.1804 29.8568 68.2844C29.3262 68.8381 28.9145 69.3078 28.6264 69.6511C28.4822 69.8229 28.3685 69.9635 28.286 70.0677C28.2448 70.1198 28.2113 70.1629 28.1856 70.1962L28.1529 70.2389L28.141 70.2547L28.1362 70.2611L28.134 70.264C28.133 70.2653 28.132 70.2666 31.2726 72.622L28.132 70.2666C26.8065 72.0339 27.1647 74.5411 28.932 75.8666C30.6953 77.189 33.195 76.8355 34.5229 75.0788L34.4689 64.265L34.5229 75.0787L34.5237 75.0776C34.5282 75.0719 34.5397 75.0569 34.5584 75.0333C34.5957 74.9862 34.6612 74.9048 34.7542 74.7941C34.9403 74.5723 35.235 74.2347 35.6327 73.8196C36.4316 72.9861 37.6268 71.8603 39.1743 70.7349C42.2846 68.4728 46.6425 66.3333 51.9987 66.3333C57.3504 66.3333 61.6616 68.4694 64.7224 70.7217C66.2466 71.8432 67.4196 72.965 68.202 73.7952C68.5915 74.2086 68.8794 74.5446 69.0608 74.765C69.1514 74.875 69.215 74.9556 69.251 75.0021L69.2648 75.0199L69.2842 75.0454L69.2849 75.0463C70.5947 76.8162 73.0902 77.1952 74.8669 75.8912C76.6477 74.584 77.0318 72.0806 75.7246 70.2997L72.5596 72.6228C75.7246 70.2997 75.7236 70.2984 75.7226 70.2971L75.7205 70.2941L75.7156 70.2876L75.7038 70.2716L75.6715 70.2285L75.6318 70.1763C75.6143 70.1532 75.5944 70.1274 75.5723 70.0989C75.491 69.9941 75.379 69.8527 75.237 69.6802C74.9531 69.3354 74.5475 68.8641 74.0242 68.3088C72.9808 67.2015 71.4504 65.74 69.4638 64.2781C65.5031 61.3637 59.5636 58.3333 51.9987 58.3333ZM32.5 36.5C32.5 34.2909 34.2909 32.5 36.5 32.5H36.5528C38.7619 32.5 40.5528 34.2909 40.5528 36.5C40.5528 38.7091 38.7619 40.5 36.5528 40.5H36.5C34.2909 40.5 32.5 38.7091 32.5 36.5ZM67.5 32.5C65.2909 32.5 63.5 34.2909 63.5 36.5C63.5 38.7091 65.2909 40.5 67.5 40.5H67.5528C69.7619 40.5 71.5528 38.7091 71.5528 36.5C71.5528 34.2909 69.7619 32.5 67.5528 32.5H67.5Z" fill="#BCBCBC"/>
</svg>
