<svg width="24" height="24" viewBox="0 0 24 24" fill="none" xmlns="http://www.w3.org/2000/svg">
<path d="M16.9991 13L12.9991 22C12.2034 22 11.4403 21.6839 10.8777 21.1213C10.3151 20.5587 9.99905 19.7956 9.99905 19V15H4.33905C4.04915 15.0033 3.76199 14.9435 3.49748 14.8248C3.23297 14.7061 2.99744 14.5313 2.8072 14.3125C2.61695 14.0937 2.47655 13.8362 2.39571 13.5577C2.31488 13.2793 2.29555 12.9866 2.33905 12.7L3.71905 3.7C3.79138 3.22309 4.03362 2.78839 4.40115 2.47599C4.76868 2.16359 5.23673 1.99454 5.71905 2H16.9991M16.9991 13V2M16.9991 13H19.6691C20.235 13.01 20.785 12.8119 21.2145 12.4432C21.644 12.0745 21.9232 11.5609 21.9991 11V4C21.9232 3.43905 21.644 2.9255 21.2145 2.55681C20.785 2.18813 20.235 1.98999 19.6691 2H16.9991" stroke="#1F1F1F" stroke-width="2" stroke-linecap="round" stroke-linejoin="round"/>
</svg>
