<svg width="24" height="24" viewBox="0 0 24 24" fill="none" xmlns="http://www.w3.org/2000/svg">
<path d="M14.9982 9V5C14.9982 4.20435 14.6821 3.44129 14.1195 2.87868C13.5569 2.31607 12.7938 2 11.9982 2L7.99818 11V22H19.2782C19.7605 22.0055 20.2286 21.8364 20.5961 21.524C20.9636 21.2116 21.2059 20.7769 21.2782 20.3L22.6582 11.3C22.7017 11.0134 22.6824 10.7207 22.6015 10.4423C22.5207 10.1638 22.3803 9.90629 22.19 9.68751C21.9998 9.46873 21.7643 9.29393 21.4998 9.17522C21.2353 9.0565 20.9481 8.99672 20.6582 9H14.9982Z" fill="#1F1F1F"/>
<path d="M4 22C3.46957 22 2.96086 21.7893 2.58579 21.4142C2.21071 21.0391 2 20.5304 2 20V13C2 12.4696 2.21071 11.9609 2.58579 11.5858C2.96086 11.2107 3.46957 11 4 11H5V22H4Z" fill="#1F1F1F"/>
<path d="M14.9982 9V5C14.9982 4.20435 14.6821 3.44129 14.1195 2.87868C13.5569 2.31607 12.7938 2 11.9982 2L7.99818 11V22H19.2782C19.7605 22.0055 20.2286 21.8364 20.5961 21.524C20.9636 21.2116 21.2059 20.7769 21.2782 20.3L22.6582 11.3C22.7017 11.0134 22.6824 10.7207 22.6015 10.4423C22.5207 10.1638 22.3803 9.90629 22.19 9.68751C21.9998 9.46873 21.7643 9.29393 21.4998 9.17522C21.2353 9.0565 20.9481 8.99672 20.6582 9H14.9982Z" stroke="#1F1F1F" stroke-width="2" stroke-linecap="round" stroke-linejoin="round"/>
<path d="M4 22C3.46957 22 2.96086 21.7893 2.58579 21.4142C2.21071 21.0391 2 20.5304 2 20V13C2 12.4696 2.21071 11.9609 2.58579 11.5858C2.96086 11.2107 3.46957 11 4 11H5V22H4Z" stroke="#1F1F1F" stroke-width="2" stroke-linecap="round" stroke-linejoin="round"/>
</svg>
