<svg width="24" height="24" viewBox="0 0 24 24" fill="none" xmlns="http://www.w3.org/2000/svg">
<path d="M9.6815 15.0001V19.0001C9.6815 19.7958 9.99757 20.5588 10.5602 21.1214C11.1228 21.6841 11.8859 22.0001 12.6815 22.0001L16.6815 13.0001V2.00012H5.4015C4.91917 1.99467 4.45112 2.16372 4.08359 2.47612C3.71606 2.78852 3.47382 3.22322 3.4015 3.70012L2.0215 12.7001C1.97799 12.9868 1.99732 13.2794 2.07816 13.5579C2.15899 13.8363 2.2994 14.0938 2.48964 14.3126C2.67988 14.5314 2.91542 14.7062 3.17993 14.8249C3.44444 14.9436 3.73159 15.0034 4.0215 15.0001H9.6815Z" fill="#1F1F1F"/>
<path d="M20.6797 2.00012C21.2101 2.00012 21.7188 2.21084 22.0939 2.58591C22.469 2.96098 22.6797 3.46969 22.6797 4.00012V11.0001C22.6797 11.5306 22.469 12.0393 22.0939 12.4143C21.7188 12.7894 21.2101 13.0001 20.6797 13.0001H19.6797V2.00012H20.6797Z" fill="#1F1F1F"/>
<path d="M9.6815 15.0001V19.0001C9.6815 19.7958 9.99757 20.5588 10.5602 21.1214C11.1228 21.6841 11.8859 22.0001 12.6815 22.0001L16.6815 13.0001V2.00012H5.4015C4.91917 1.99467 4.45112 2.16372 4.08359 2.47612C3.71606 2.78852 3.47382 3.22322 3.4015 3.70012L2.0215 12.7001C1.97799 12.9868 1.99732 13.2794 2.07816 13.5579C2.15899 13.8363 2.2994 14.0938 2.48964 14.3126C2.67988 14.5314 2.91542 14.7062 3.17993 14.8249C3.44444 14.9436 3.73159 15.0034 4.0215 15.0001H9.6815Z" stroke="#1F1F1F" stroke-width="2" stroke-linecap="round" stroke-linejoin="round"/>
<path d="M20.6797 2.00012C21.2101 2.00012 21.7188 2.21084 22.0939 2.58591C22.469 2.96098 22.6797 3.46969 22.6797 4.00012V11.0001C22.6797 11.5306 22.469 12.0393 22.0939 12.4143C21.7188 12.7894 21.2101 13.0001 20.6797 13.0001H19.6797V2.00012H20.6797Z" stroke="#1F1F1F" stroke-width="2" stroke-linecap="round" stroke-linejoin="round"/>
</svg>
